<svg width="32" height="32" viewBox="0 0 32 32" fill="none" xmlns="http://www.w3.org/2000/svg">
<path d="M9.33325 29.3333V16.5308C9.33325 15.1065 9.33325 14.3944 9.65936 13.7971C9.98545 13.1998 10.5845 12.8147 11.7825 12.0445L14.5579 10.2603C15.2582 9.81018 15.6083 9.58508 15.9999 9.58508C16.3915 9.58508 16.7417 9.81018 17.4419 10.2603L20.2173 12.0445C21.4154 12.8147 22.0143 13.1998 22.3405 13.7971C22.6666 14.3944 22.6666 15.1065 22.6666 16.5308V29.3333" stroke="#0F4761" stroke-width="1.5" stroke-linecap="round" stroke-linejoin="round"/>
<path d="M16 17.3334H16.012" stroke="#0F4761" stroke-width="1.5" stroke-linecap="round" stroke-linejoin="round"/>
<path d="M28.0001 29.3334V21.5498C28.0001 18.4943 26.3211 18.247 22.6667 17.3334" stroke="#0F4761" stroke-width="1.5" stroke-linecap="round" stroke-linejoin="round"/>
<path d="M4 29.3334V21.5498C4 18.4943 5.67888 18.247 9.33333 17.3334" stroke="#0F4761" stroke-width="1.5" stroke-linecap="round" stroke-linejoin="round"/>
<path d="M2.66675 29.3334H29.3334" stroke="#0F4761" stroke-width="1.5" stroke-linecap="round" stroke-linejoin="round"/>
<path d="M16 29.3333V24" stroke="#0F4761" stroke-width="1.5" stroke-linecap="round"/>
<path d="M16 9.3333V6.64291M16 6.64291V3.96043C16 3.32816 16 3.01203 16.1952 2.8156C16.8081 2.19915 19.3333 3.65734 20.2937 4.24867C21.1047 4.74803 21.3333 5.74549 21.3333 6.64291H16Z" stroke="#0F4761" stroke-width="1.5" stroke-linecap="round" stroke-linejoin="round"/>
</svg>
