<svg width="32" height="32" viewBox="0 0 32 32" fill="none" xmlns="http://www.w3.org/2000/svg">
<path d="M16 6V8M16 8V10M16 8H18M16 8H14" stroke="#0F4761" stroke-width="1.5" stroke-linecap="round"/>
<path d="M11.4478 3.44768C10.6667 4.22872 10.6667 5.4858 10.6667 7.99996C10.6667 10.5141 10.6667 11.7712 11.4478 12.5522C12.2288 13.3333 13.4859 13.3333 16.0001 13.3333C18.5142 13.3333 19.7713 13.3333 20.5523 12.5522C21.3334 11.7712 21.3334 10.5141 21.3334 7.99996C21.3334 5.4858 21.3334 4.22872 20.5523 3.44768C19.7713 2.66663 18.5142 2.66663 16.0001 2.66663C13.4859 2.66663 12.2288 2.66663 11.4478 3.44768Z" stroke="#0F4761" stroke-width="1.5" stroke-linecap="round" stroke-linejoin="round"/>
<path d="M5.33325 29.3333V15.9609C5.33325 11.5483 5.33325 9.34195 6.70009 7.97111C7.56879 7.09987 8.77399 6.78235 10.6666 6.66663M26.6666 29.3333V15.9609C26.6666 11.5483 26.6666 9.34195 25.2998 7.97111C24.431 7.09987 23.2258 6.78235 21.3333 6.66663" stroke="#0F4761" stroke-width="1.5" stroke-linecap="round" stroke-linejoin="round"/>
<path d="M4 29.3334H28" stroke="#0F4761" stroke-width="1.5" stroke-linecap="round" stroke-linejoin="round"/>
<path d="M12.6667 29.3333V26C12.6667 24.7538 12.6667 24.1308 12.9347 23.6666C13.1102 23.3626 13.3627 23.1101 13.6667 22.9346C14.1309 22.6666 14.7539 22.6666 16.0001 22.6666C17.2462 22.6666 17.8693 22.6666 18.3334 22.9346C18.6374 23.1101 18.8899 23.3626 19.0654 23.6666C19.3334 24.1308 19.3334 24.7538 19.3334 26V29.3333" stroke="#0F4761" stroke-width="1.5" stroke-linecap="round"/>
<path d="M10.6787 17.3334H10.6667M16.0001 17.3334H15.9881M21.3349 17.3334H21.323" stroke="#0F4761" stroke-width="1.5" stroke-linecap="round" stroke-linejoin="round"/>
</svg>
