<svg width="32" height="32" viewBox="0 0 32 32" fill="none" xmlns="http://www.w3.org/2000/svg">
<path d="M4 5.33337V26.6667C4 27.9238 4 28.5523 4.39052 28.9428C4.78105 29.3334 5.40959 29.3334 6.66667 29.3334H25.3333C26.5904 29.3334 27.2189 29.3334 27.6095 28.9428C28 28.5523 28 27.9238 28 26.6667V5.33337" stroke="#0F4761" stroke-width="1.5" stroke-linecap="round" stroke-linejoin="round"/>
<path d="M14 10.6666V12.6666M14 12.6666V14.6666M14 12.6666H18M18 10.6666V12.6666M18 12.6666V14.6666" stroke="#0F4761" stroke-width="1.5" stroke-linecap="round" stroke-linejoin="round"/>
<path d="M18.6666 29.3334V23.9999C18.6666 22.5273 17.4727 21.3333 15.9999 21.3333C14.5271 21.3333 13.3333 22.5273 13.3333 23.9999V29.3334" stroke="#0F4761" stroke-width="1.5" stroke-linecap="round" stroke-linejoin="round"/>
<path d="M2.66675 5.33329H10.6667C11.5199 3.76965 13.5864 2.66663 16.0001 2.66663C18.4138 2.66663 20.4802 3.76965 21.3334 5.33329H29.3334" stroke="#0F4761" stroke-width="1.5" stroke-linecap="round" stroke-linejoin="round"/>
<path d="M8 10.6666H9.33333M8 16H9.33333M8 21.3333H9.33333" stroke="#0F4761" stroke-width="1.5" stroke-linecap="round" stroke-linejoin="round"/>
<path d="M22.6667 10.6666H24.0001M22.6667 16H24.0001M22.6667 21.3333H24.0001" stroke="#0F4761" stroke-width="1.5" stroke-linecap="round" stroke-linejoin="round"/>
</svg>
